<mxfile host="app.diagrams.net" modified="2022-07-01T01:24:28.886Z" agent="5.0 (Windows NT 10.0; Win64; x64) AppleWebKit/537.36 (KHTML, like Gecko) Chrome/103.0.0.0 Safari/537.36" etag="ezuKutd36UImf0EZD7vi" version="20.0.4" type="github">
  <diagram id="IYEPm8jSgx4fJYBNTcXm" name="Page-1">
    <mxGraphModel dx="1038" dy="523" grid="1" gridSize="10" guides="1" tooltips="1" connect="1" arrows="1" fold="1" page="1" pageScale="1" pageWidth="827" pageHeight="1169" math="0" shadow="0">
      <root>
        <mxCell id="0" />
        <mxCell id="1" parent="0" />
        <mxCell id="lzqDUzzG9wcNbirKXYka-5" style="edgeStyle=orthogonalEdgeStyle;rounded=1;orthogonalLoop=1;jettySize=auto;html=1;exitX=0.5;exitY=1;exitDx=0;exitDy=0;entryX=0.5;entryY=0;entryDx=0;entryDy=0;fontSize=20;startArrow=classic;startFill=1;strokeWidth=3;" edge="1" parent="1" source="lzqDUzzG9wcNbirKXYka-3" target="lzqDUzzG9wcNbirKXYka-2">
          <mxGeometry relative="1" as="geometry" />
        </mxCell>
        <mxCell id="lzqDUzzG9wcNbirKXYka-3" value="&lt;font style=&quot;font-size: 20px;&quot;&gt;&amp;nbsp; &amp;nbsp; &amp;nbsp; &amp;nbsp; &amp;nbsp; &amp;nbsp;可视化大屏&lt;/font&gt;" style="rounded=1;whiteSpace=wrap;html=1;" vertex="1" parent="1">
          <mxGeometry x="70" y="130" width="270" height="90" as="geometry" />
        </mxCell>
        <mxCell id="lzqDUzzG9wcNbirKXYka-1" value="" style="shape=image;verticalLabelPosition=bottom;labelBackgroundColor=default;verticalAlign=top;aspect=fixed;imageAspect=0;image=data:image/png,iVBORw0KGgoAAAANSUhEUgAAAGAAAABgCAYAAADimHc4AAAABmJLR0QA/wD/AP+gvaeTAAAM10lEQVR4nO2da3AdZRnHf+9eztmT+z05aZK2aUpSGhraAlXA4ih2SqGto+MXZxw/iuigDhcd0RFRBLQKiB+AUpECAhUQHaEFodhybykUeqG06T30kvSS9JqkSY4f9qSk5+y7u++ec5Ijnt/MTuacJ++7z+6z+55n/8+7u5AjR44cOXLkyPH/Sgj4LXAAiGXJ0gf8B5iShu2bArwa73Ost2t42QfcAZgAi7LAIdmyFyhW3uWfUgTsyYLtkC13ARzOAkfclkWqe30Ed2WB/25LJ8DRLHDEbekDzlPc8QBNQG8W+O+2HNKAJwNs3GgSIthZsAgIp9mXdLMMoBroYeyPBq9lrsKGfSkL/PVajgNREXf458BtTlvSfP0CauddrLDtNgMbu9f0vtJ1iUqb/t5TbFj9HEODA07mj4A24IxHNzrwPnBBokHTdS74wlcJRfKV3Mr/1oT9oswcr9II4JPn17L1vn/KzD8DbtfiHxZhZwtJ7Fz6CgMne1XXjdFaconIN9aptAlZeUQbp8rMU4Dv+OjmuzjsfICaia2qOx+jseDtIDt/8HQfux5bKTN3AHcDDAfgNHZEkujvPsmeZa+prh+AyMJoKd5H7Dl47KTbgHKX5qXAL5wMHsF1Rogua071TLVGNrufXE3/0RMy80+AU/BpAAAeA9Y6/ffev79J78FuZSe0SqtRr4u8o9RG16lvlm6zdAfH+SVQ4WSoa56JphsqrhCaVbadsKZ2ygB9XT10PPeWzPwe8MTwh5EBiAE/iP89h6H+AXY8/G9VPwCwrq5tA3FEpU1ZdAKFpVUy83U4DzFTgGudGhSUVFJeO1HFBURI/9icVTZLqVGc9odeZLBPeuL/EBga/qAlGN8CnnVqdXDVBno2Of5MuCIsrTA8s2SLaruG8y8BIZxMOvHxM4E/EL+0P9cBQcP5yklEzJpbNSTA0QE3jm3poHP1Rpn5b8A543liAABuxr74SXApRvviFRBLOkE8MS8r/5wwtW0qbfKKyqgYN0lm/jJwzYjP85GkqRW1jeQXO45KUrTy8Bp9YoG6DhWL0b54uWwf9QM/TVqXwz/uAP7k1MOxLXvdoitHCC00Lzoshvmm7rwZ6EbyQR3nHuwLLemFmqYb1DVPV1klwGlrQVRtvIrTuWqj2yhxL9Ce+KVTAAB+DRxyMmz/80sM9Tvm6a6YE/JatbKQ44+8tE3YIjrJMaMEmAR8H7geiVRRO+kCzHCekp9GS+F7WpEp/QGSMTQwyI5HXpaZjwB3Ohl0SYNe7NR0XqJh4GQvRiRM8VTl1Bh9Qn74zPpucBqrJRQUl3N4/y4Gz/Q7mWcBswEr0RCOFNB44RcQQnaMOaCJA5Fv1E8SulBLl4C9T79B52vS0eFmYJXjKl36vB/Y5GTY9cQqtxxXilZsVhjNhe+rtBGaTn2LNC0tRiJX10+5CE2THV/OhGdX7hOmUNaPzvScZPdTq2XmLcADMqNbAAawLxiSGDzdx67HX/Xt4Eisr1RdjC4+UWlTWt1AUUXU9/8XlddQWt2g5Jew9E3mtKIZSo3ieKgFN+JyMep1fv4LeMnJsO+Fdzm566AvB89B10Lh2ZXKDRumXIxwTkvPQQhB/RTltHMoMj9qSdJeV07t6WLfCqnishJ43q29nwHyJmAw8cvY0BDb7n/BR/NkzGnFM7Q8fYNKm0hBCRV1kz3/r7J+MnmFpUr+aDWRNVptRJrzurHtweXEBoecTEPY+8593T7W8SHwsJPh6PodHHlXKb0/i7Wwrhh7mPNNXfN0DFM+ROtmiHGTL1TyI0bshHV1TYtSozge278EW3ZwxW+KcAtwzMngcgS4r7gq1KCPi7yr0sYww9Q2SdNSxjVNwwglJUSumNNKN2kFRolSIzxHgBO4a1Zn8RuATuB3ToZTe7rY/6KS6nyWyDXRViE4qtKmanwLVn5R0vdWfhFV49UOZKHTEZ5dcZFSozj7V6xz+w28E9jvpx+FJJnfY89SSGLn0lcYOJWsXnhi6QXGhWVKY5gQGo1tl2OYobPfGWaIxrbL1XJ+IHRldbfQhVquCgyc6mPno1Ktfy+2LuULlZUPAF3A1xINg71nEEDpdPXfMaM+Utv//tEdDFHmt03IyqOirgkrv4iSqnoaps5yPCvcEAXGRmtOTauyw8Cux151G/u/h4+xfxi1QwYeB9Y4GfY+8wan9yupznEPhIjMjSZlWV6YIYvK+slU1k/GVBz3gQFrwTjfAR+Jh9a/BvirSn+qAYhh69nJNYOBQXb8RaqFuKI35p+nlYZ9HzWpok+IrNMrQ7VB2npo/TeiKDiqBgDsmsEzTobO1Rvp2bQ7QJdgLYyOx9agMkpM0B2eE5WnUi54aP3LSND6/RAkAJCBmoFWbJYbkws+COiPb8IzS7drEV1NIgU/Wv8tQfwJGoCdwH1OhmNbOuhcFaBmAITn1MxA+EvfAmFqu0KfLw+k93ho/ffgoPX7IWgAAG5HUjNoX+I6TkoRhjDDV1QdTsEnVyJzqvvR1AUfD62/C/hNUJ9SCUA39iyEJDwyBVfMaUWtIs90lMFTQZSG1utNBUHmmHpleLdizywMRCoBAJeagce8GDlCYM2vLmbEzIE00B9ZUDsuSMMzPa7zorYAiwN7ReoBcK8ZyGeGuaLXROqMaCRtaakxuXC9VmJWBmm74xFXrf8GFCeeJZJqAMCtZrDcVS9xJXxNdCqC46k4BoAQh6wrq9qCNPXQuVYCwfT4EaQjAJCBmoHI0yOh6SVbU3XMvLR8PyEt0DT1bQ+8IFN6B7EvSFMmXQHISM0gdGnFDExNfTZYHGHp20MXlQa66Dq8ditH1kkzyyWAUkFJRroCABmoGaALEZlb7Tgdwgcx66pqU73IaJ+525c4jqpga/23BvQpiXQGwLVm4FI3dUVvLGjSSgzlo02vstbrDflqlfk4HvXuO/Cp9fshnQEAu2bgKAYFvc8AwFo4rh4n6UNOb/jq6qYg6/KY8dGBfdWbNtIdAOl9Bh75tCtaSajEbMr3rW8YUws3a0WhwiDr8pjz9GPi8/rTRboDAHbN4E0nQ+CaARCeU9OGJro8/1HXDoa+WK1WmY/Te7DbS+t/QmYMSiYCEEOii6dSM8DUjPClZY7a00jCV1Qc0QzF2mQcj3mvN6Co9fshEwGADNUMzBmlU0REl+a0Is/YarYWBXq8gcfM72XA60H69SJTAYAM1Axsnai2EGedaMiaHy0MMrvNw6fAWr8fMhmAncAfnQyp1Az0qFVjVFsfJn0/LvKBXmP5n0A6Ao+7fwJr/X7IZAAAfgU4JtRBawYA4QXRlph9QQRADE6Er4oGmt3mcf9bSlq/HzIdgOPYQUgilZqByDOscFvJ9uHP4emlO7R8PRKkL487QFPS+v2Q6QBAJmoGgDm7og1T2ysM8Yl5WXkgvcfjHuiUtX4/KM8KC0AM++r4m0mGgUGGevspn9Ws3KkQAq3QPGJMKhjUK8Nq06HjtD+4gp7N0rH/28DHQfpVYTTOALDnyKe9ZmC0FE40mgsD3VA3Glq/H0YrAAA/wmE6eio1g1QYDa3fD6MZgM1koGYQBA+t/yHSpPX7YTQDALZQl96agSIeWv9x0qj1+2G0A9CJ/YTGJFKpGajgQ+s/kHEnRjDaAYAM1Qz84EPrvzdjK5cwGmloItL7DIb6ziCECHSfgR92PrrSbey/FvtJW6PKWJwBYM+hT3vNwA0Prf8dxujhhWMVgMzUDFzw0PqV5/Wni7EKANg1g6edDKnUDJzw0PqfIkNavx/GMgBg11jTWzNQ6yujWr8fxjoAGakZjMRD678b2C4zjgZjHQBwqxk8tCJwzQB8af13BO48TYxFGppIP5JnEw2e6kOPhChpVX82EcCep1+n6/XNMvNNjOHYP0w2nAGQgZqBh9b/EaOg9fshWwIwiP2DnGw47XpXupSdS1/2mtev/ty1DJAtAQCXmoHHcxmSOLmnk/0vSu/vWAksV/YuQ2RTACBNNYP2B6TK6qhq/X7ItgC41gwOr/W+XyObtH4/ZFsAwKVm0L54hWvNINu0fj9kYwDcawbL5c94yjat3w/ZGABwqxk8utIxu8lGrd8P2XAh5sQA9pnw9UTDUPzKuCyhZrBzafZp/X7I1jMA7Ln4bzgZOp5985yaQe+Bo3T8I/u0fj9kcwB81wxctH5pH9lCNgcA4G3sZ+4n0blqAz2bdtta/2vSR0uMqdb/WWEikheyFbXUx4pa6mWviTodb5sjDQR5JeGYS82fJQpRe9trJ6m9BDSHA9fhPwCOL/PJkRo6to7jtfM3A8ovYMjhj3l4B0DlnZM5ArAC+c5P/4SiHEmcj/2UqsSdP4DkHZI50s99JAcgK8W2zyphbMX0UHxZhP0+sRw5cuTIkeN/hv8CuflD+2ViCfIAAAAASUVORK5CYII=;" vertex="1" parent="1">
          <mxGeometry x="80" y="135" width="80" height="80" as="geometry" />
        </mxCell>
        <mxCell id="lzqDUzzG9wcNbirKXYka-4" value="" style="rounded=1;whiteSpace=wrap;html=1;" vertex="1" parent="1">
          <mxGeometry x="70" y="330" width="270" height="90" as="geometry" />
        </mxCell>
        <mxCell id="lzqDUzzG9wcNbirKXYka-2" value="" style="shape=image;verticalLabelPosition=bottom;labelBackgroundColor=default;verticalAlign=top;aspect=fixed;imageAspect=0;image=data:image/png,iVBORw0KGgoAAAANSUhEUgAAAGAAAABgCAYAAADimHc4AAAABmJLR0QA/wD/AP+gvaeTAAAODUlEQVR4nO2be3Qc1XnAf9+dlWXJlu2VbQyy2J07u9gBzBuSJgFsCI/yTBs4aYgJcNIcOBQKoZySBE5fSfMgPSFpTwM4NKExzxJKDDnHvGIeCaEJCSmFGIdktTMrS4DNsS0jW1irnfn6x8zKK1uyJNu85/fPnrlz753v3m/u3O9xF1JSUlJSUlJSUlJSUlJSUlJSUlJSUlJSUlJSUlJSUlJSUlJSUlJSUlJSUlL2CrJjgbX2bBHZqKr9vu//39sh1PsJM0rZYar6D8Apb7Uwk6VQKHzEWrtsyZIlmXeALEVr7W2e531sMu12UkC1Wr0RWADkCoXCUfl8/sC9JSQgCxcubJto5WKx2JzL5bIdHR2tjeXW2uOstSuiKPoFcPHatWvb96KMk6JYLB7sed7NURStBs5X1SMn036nN6e5uXmxqu4LXBJF0XHGmEM7Ojqmv/zyywN7QdiDqtXqc9baDDAEbAGqwFZgGjAlqZoFCMMQx3FwHOdRkhXpuu6FwH+OGEQm88aeyrY7FIvFGWEYPg3MaCiOJtPHiBVQKBQWqeq9xBPRBPwKeLq5ufkRa+11hULho3sicKlUWi0iRwK/T/rPAlVV/aGqfltEviki3xOR60XkbmLlICJd9T6CIFguIkuB4UnfunVrbU/k2l1KpdLrTU1NBeCeepmITEoBIzbhefPmTWttbd0C/JF4kl4VkQdUdXlSd5aIfLalpeWO1atXV3dXcM/zPqaqP00ub/N9/4LR6rmu+3ERWQF8zff96xrvWWv/HbgMwHGcqaVSaXB35dlTXNfdV0ReAVDVq4Ig+M5E2w6vANd1T21tbb07uewknuyXgTZV7QB+kTzgBwMDA8+7rvtnrutO3R2Bq9Xq7xsudax6QRDcDzwK9I1ye7iPzs7OcHfk2FsEQbAOqMsw5nhGIwPguu5iEbkHGAQ2AJuAj6rqscSrYLqqrheRa4CXVFUcx+lR1b+y1lrHcW4ulUqrJ/rQpqamCX8ypkyZcs4Yt962N34UlFgBzmQbZgBEZAHxhtiRlBsReSCKoseB9caYfsdxLq0vc9d1p27ZssVpaWm5VkTODMPws9ba83zff2DvjGc7L730Uv94dfr7+3fyZ95GJiVLxvO8L6rql4HHgUERuT+Xy/1tpVI5EVgfBMFzEE+653mHqOqfAMe2trYe6zjOEf39/WFra+tpwELXdacGQbBtrw9pHLZt2/ZOUsCkyKjqZSJyZRRFr4hIFEXRkv7+fhGRuaq6n7X2O8ABQFsURfcaY+6IougnwOJSqfR60s+9e1swz/NWAxeVy+Vfj1d3cHDwHaMAY8zkVgDQo6oHAyeJyE3AGRs3bpyjqh8RkQLwCvB37e3ty1999dUZvb29G4rFYiGKogzxcpvUpjMRPM9boKoHqeq4nx+AWq22q0GbfD5/qjHmQlVdJCL7AIGqfi0IghVjtBFr7bnAFcAHiM3l14BeYJnv+7fs4nnDslhrv6KqBRHpF5E+krmKoigSkWW+71cywErgChGZo6qfSNq2GGP6VfVCx3EeK5VKPb7vQ7xBU6vVzjHGHJHL5VZ2d3dvGm+CxuEEa+2yZJCtItKqqgcBVKvV7ol0MJYC8vn8hx3H+Y+kv9uI7fW/BI4RkXvy+fxhlUplzY7trLX/AlwN/EREvgBMVdW/AI4HrgHGVICqDstijHlcVYuqerHq8Hv6HPCiMaYJIBOG4R2O4/xTcnOdqm4xxjwfRdHMTCbzYBRFLZ2dnS09PT1vNHRcAtY2NTXNJraY9oRm4tBHm6pOBeYC+wDRRL3voaGhnUIqyX71M1XNAA/5vn8hoLlc7nbHcV4CmkRkMTBCAcVicW4Yhp8H+nzf/zjbV/hN1tp/Ay7L5XLZXbx4wwro6up6zFp7FPApVV0JXB0EQaMJjunu7i4Dv0uu54lIQVVPAfqGhoYyIjIjk8mc3dDGKZfL9wF/DMNwzkQmaBwe9H3/BN/3jw6CYJHv+/uq6p1MwpqYM2fOTnWjKOon9hUeqlar55NMZDLeXgAR2SmGVKvV5hObkzM8z1vUcEvz+fxVqvqlCYrlJCvp66p6aRAEZ+w4+bDdDF2lqocQm6IbVPUbQRDc7LruqVEUnWyMeaihTZgMcI4xZtJ27wRQY8w3VPXTE20w2icoCIIAOGSMJoMwetggk8mUwzCsAlNU9RnP85aFYXh9pVJ55YknnqgB148jjixcuLCtWq3eCZwJfCYIgtvHqmwAVPWx5Ho6kBeRk6y154vIX0dR9N0oip6qd15vOG3atKcSD3mvUy6XXxCRMyZaPwzDCa2WBQsWzHFd9xKgAKCqO3nQiWV3LfGKmaqqVxpjuqy1/1osFjsn8JgTq9Xqr4knH1Ut7KqyAXAc50mgAjyflPcCVRG5qVKpBI7jzPU8L9fZ2Tk1n8+fUCgUFg0ODuaJv9dvCuVyeeVE60ZRNKYCrLULXde9wVr7wtDQUCAil7A9BDNq4Mz3/W+JyJls3x9agCvCMHzRWvvJccT5UwBVXQ0gIl9yXffwsSobGNb6I6r6/aT8XCCnqqd3dHS01Gq1RUnEslVEojAMl9ZqtemqOuHY/pvJaApwXXeW53l3AS+KyHEi8oXW1tZ23/ePBEow+gqoUy6XV/q+v0hEPl2fTKANuNVam9+FOKva29sPIV4B/UCziNw1b968aaNVbrQe1opIfVOdp6pVYFpzc/MTInI58NtMJrNPEARPGmP+u1arPS8iPbsQ5C1jNAWIyO2q+ikgGBwcXFwul1c2RHCjHX6HKRaLc2lYIeVy+a4gCA4VkWuTslZVXTKWLCKy6tlnnx0KgiBQ1WuS4g+0tLTcwigJsOECx3FuBT5MbBE5IvItVb0ZmC4id/u+f3XdZi6Xy7/p6el5Q0R8z/PG2ujGRFWzjTJPtv2O7URkRFQ2SVGellyu2dGcTUxTjDEjMm0AYRjeYq39xx2Ko3K5/HXiMD3AiOclUeEMQBRF9aQSQRAsAx5OZDzP87wb2WG8wwoolUo9QCAia5OiDPBJYF2SRNkJY8xTick6KUTk5IbLwzs7O1sm2wex71CX4/TGG4m10ptcnuh53unFYnGG67qHu6779yLiJfcut9b+0Fr7vYbmQ8B11tp/9jxvZr3QWrsQmE9sQT28gyyHkcyliBzTUK5hGJ4H/AFAVS9xXff2BQsWDJvvI7Thuu4SEbkKqNv9T4jIxVEUzTfGOIk7vbarq2s9QLFYLIRheJXv+5ePM1kk9edGUfRlVb2IkW/RNlX9LbA8eWt2hbHWfhO4nNiJg9hi+SVwh+/73wWw1l5AnLpsHONWEbkNmJV8ngDWRVF0aaVS+TGA53nfVtXP1+USkXIURSoiC4EB4HO+7/+oYc4uEpHriZ3HOq8CP69Wq5f29vZu8DzvAFX9JVD3O0JgjYhcOtqxlK8Su+vzkqII+BHgAQuBp4E7fd+/Lcmg3WmMub6rq+vpcSaOXC6XNcZcICJbRKRPVYeSScxCnHosl8urxunGWGuvVlURkT4R6Y+iaIqINAO+7/uP1it6nneMqp6lqhljzOqmpqYHkvC2WGs/IyJD1Wp1RaOXD3FqNgzDo0WkICJtURRtNMaUarXagzt6wJ7nfSKKogOMMf3A5mTvBGBgYGDlunXrtib1jgbOVdUtSYyrzxizYjQFHA8sJVZC3dG6H/g+8BXgYFV9JgiCj0KcSRORv/F9/zQmmZBOGWVX9n3/ZyLyBtDovfW2t7c/RPy2DhhjbqzfCILgYVW90lo7VuYqZReMFUXcz3GcG1R1NnAycXhiqYgocfTUAdY4jnNWqVTqgnj/UNWWSqXy4Fsm/XuAUWM5mzdv3pLNZmeIyBBwLHGYeKmqThORFhF5knjjbOvr6/s5wPTp019vamo6Z9asWa/09fVteAvH8K5mtKOJAJTL5VujKNIkMlkDRERqwICqngkcpaqZXC5XN+lIQq6X7b///m9KjOi9yC6jmfPnz//V0NBQTkR+AxwvIuuJkxGbgdeBacaYy7LZ7JFRFK3q7u4uzZw5sy+TydybzWYf3bRp08a3YAzvanapgNdee63a3t7+mqoeKCJPARcS+wiHA0URyRCn7Nodxzm7ra3toe7u7jXZbHZbFEXL2tvbN2zatOl3u3rG+50xP0F1yuXyHxzHuQ+YDVzHyAzYemLP0ReRF5qamq4EpFwu/8AYc5qqHu953n2FQmHRKF2PkMPzvAN2dxDvZiYch8nn8/sZY64iPju0dKx6qnpaEATDCZwlS5ZkKpXKDao6R0Ru9X1/FQ3+QrFYnFur1VaISKfv+x7bT5i9L5hwRmvz5s1b5s+f/+TQ0NBxwNFAD/GJ5sbY+lYRmT1r1qx9+vr6nvE8L7dp06YPGmMeEZF+4M+z2ewXs9nsh7LZbHbmzJkG+LGIHA2c0tfXNxxdLRaLzRs3bnzPK2O3IpGJW/05VV0LLAEWE592buR/iQNmz4rI/6jqScAyEVkDHKqqlwAzROS/klCCQ3zqYDPxEZATRWS5qhpgtu/75+/WCN/h7MmBJuO67lki8kFgjap6wIeMMYPJnxTqSYt+4iDWVuJj7wPE5+n3Yfvq2Up8FH0mI/clBYZU9adBEEw4RfluYq+cKEuiokcARlVPFZEBETlYVacQRz37iBUyO2nSxih/DiHe4B8BXgA6VHW567rPJuHl9yRvxpE+yefzruM4BwKzgG3AtiiKmoiPvE8H9gX2J95HAqAShmFvW1tbaU/+d5CSkpKSkpKSkpKSkpKSkpKSkpKSkpKSkpKSkpKSkpKSkpKSkpKSkpKSkpLyPub/AXTbu/K4AMUcAAAAAElFTkSuQmCC;" vertex="1" parent="1">
          <mxGeometry x="157" y="330" width="96" height="96" as="geometry" />
        </mxCell>
        <mxCell id="lzqDUzzG9wcNbirKXYka-6" value="" style="rounded=1;whiteSpace=wrap;html=1;fontSize=20;fillColor=#f5f5f5;fontColor=#333333;strokeColor=#666666;" vertex="1" parent="1">
          <mxGeometry x="414" y="135" width="396" height="275" as="geometry" />
        </mxCell>
        <mxCell id="lzqDUzzG9wcNbirKXYka-7" value="使用的技术" style="text;strokeColor=none;fillColor=none;align=left;verticalAlign=middle;spacingLeft=4;spacingRight=4;overflow=hidden;points=[[0,0.5],[1,0.5]];portConstraint=eastwest;rotatable=0;fontSize=28;" vertex="1" parent="1">
          <mxGeometry x="490" y="70" width="260" height="40" as="geometry" />
        </mxCell>
        <mxCell id="lzqDUzzG9wcNbirKXYka-8" value="" style="shape=image;verticalLabelPosition=bottom;labelBackgroundColor=default;verticalAlign=top;aspect=fixed;imageAspect=0;image=data:image/png,iVBORw0KGgoAAAANSUhEUgAAAGAAAABgCAYAAADimHc4AAAABmJLR0QA/wD/AP+gvaeTAAAM10lEQVR4nO2da3AdZRnHf+9eztmT+z05aZK2aUpSGhraAlXA4ih2SqGto+MXZxw/iuigDhcd0RFRBLQKiB+AUpECAhUQHaEFodhybykUeqG06T30kvSS9JqkSY4f9qSk5+y7u++ec5Ijnt/MTuacJ++7z+6z+55n/8+7u5AjR44cOXLkyPH/Sgj4LXAAiGXJ0gf8B5iShu2bArwa73Ost2t42QfcAZgAi7LAIdmyFyhW3uWfUgTsyYLtkC13ARzOAkfclkWqe30Ed2WB/25LJ8DRLHDEbekDzlPc8QBNQG8W+O+2HNKAJwNs3GgSIthZsAgIp9mXdLMMoBroYeyPBq9lrsKGfSkL/PVajgNREXf458BtTlvSfP0CauddrLDtNgMbu9f0vtJ1iUqb/t5TbFj9HEODA07mj4A24IxHNzrwPnBBokHTdS74wlcJRfKV3Mr/1oT9oswcr9II4JPn17L1vn/KzD8DbtfiHxZhZwtJ7Fz6CgMne1XXjdFaconIN9aptAlZeUQbp8rMU4Dv+OjmuzjsfICaia2qOx+jseDtIDt/8HQfux5bKTN3AHcDDAfgNHZEkujvPsmeZa+prh+AyMJoKd5H7Dl47KTbgHKX5qXAL5wMHsF1Rogua071TLVGNrufXE3/0RMy80+AU/BpAAAeA9Y6/ffev79J78FuZSe0SqtRr4u8o9RG16lvlm6zdAfH+SVQ4WSoa56JphsqrhCaVbadsKZ2ygB9XT10PPeWzPwe8MTwh5EBiAE/iP89h6H+AXY8/G9VPwCwrq5tA3FEpU1ZdAKFpVUy83U4DzFTgGudGhSUVFJeO1HFBURI/9icVTZLqVGc9odeZLBPeuL/EBga/qAlGN8CnnVqdXDVBno2Of5MuCIsrTA8s2SLaruG8y8BIZxMOvHxM4E/EL+0P9cBQcP5yklEzJpbNSTA0QE3jm3poHP1Rpn5b8A543liAABuxr74SXApRvviFRBLOkE8MS8r/5wwtW0qbfKKyqgYN0lm/jJwzYjP85GkqRW1jeQXO45KUrTy8Bp9YoG6DhWL0b54uWwf9QM/TVqXwz/uAP7k1MOxLXvdoitHCC00Lzoshvmm7rwZ6EbyQR3nHuwLLemFmqYb1DVPV1klwGlrQVRtvIrTuWqj2yhxL9Ce+KVTAAB+DRxyMmz/80sM9Tvm6a6YE/JatbKQ44+8tE3YIjrJMaMEmAR8H7geiVRRO+kCzHCekp9GS+F7WpEp/QGSMTQwyI5HXpaZjwB3Ohl0SYNe7NR0XqJh4GQvRiRM8VTl1Bh9Qn74zPpucBqrJRQUl3N4/y4Gz/Q7mWcBswEr0RCOFNB44RcQQnaMOaCJA5Fv1E8SulBLl4C9T79B52vS0eFmYJXjKl36vB/Y5GTY9cQqtxxXilZsVhjNhe+rtBGaTn2LNC0tRiJX10+5CE2THV/OhGdX7hOmUNaPzvScZPdTq2XmLcADMqNbAAawLxiSGDzdx67HX/Xt4Eisr1RdjC4+UWlTWt1AUUXU9/8XlddQWt2g5Jew9E3mtKIZSo3ieKgFN+JyMep1fv4LeMnJsO+Fdzm566AvB89B10Lh2ZXKDRumXIxwTkvPQQhB/RTltHMoMj9qSdJeV07t6WLfCqnishJ43q29nwHyJmAw8cvY0BDb7n/BR/NkzGnFM7Q8fYNKm0hBCRV1kz3/r7J+MnmFpUr+aDWRNVptRJrzurHtweXEBoecTEPY+8593T7W8SHwsJPh6PodHHlXKb0/i7Wwrhh7mPNNXfN0DFM+ROtmiHGTL1TyI0bshHV1TYtSozge278EW3ZwxW+KcAtwzMngcgS4r7gq1KCPi7yr0sYww9Q2SdNSxjVNwwglJUSumNNKN2kFRolSIzxHgBO4a1Zn8RuATuB3ToZTe7rY/6KS6nyWyDXRViE4qtKmanwLVn5R0vdWfhFV49UOZKHTEZ5dcZFSozj7V6xz+w28E9jvpx+FJJnfY89SSGLn0lcYOJWsXnhi6QXGhWVKY5gQGo1tl2OYobPfGWaIxrbL1XJ+IHRldbfQhVquCgyc6mPno1Ktfy+2LuULlZUPAF3A1xINg71nEEDpdPXfMaM+Utv//tEdDFHmt03IyqOirgkrv4iSqnoaps5yPCvcEAXGRmtOTauyw8Cux151G/u/h4+xfxi1QwYeB9Y4GfY+8wan9yupznEPhIjMjSZlWV6YIYvK+slU1k/GVBz3gQFrwTjfAR+Jh9a/BvirSn+qAYhh69nJNYOBQXb8RaqFuKI35p+nlYZ9HzWpok+IrNMrQ7VB2npo/TeiKDiqBgDsmsEzTobO1Rvp2bQ7QJdgLYyOx9agMkpM0B2eE5WnUi54aP3LSND6/RAkAJCBmoFWbJYbkws+COiPb8IzS7drEV1NIgU/Wv8tQfwJGoCdwH1OhmNbOuhcFaBmAITn1MxA+EvfAmFqu0KfLw+k93ho/ffgoPX7IWgAAG5HUjNoX+I6TkoRhjDDV1QdTsEnVyJzqvvR1AUfD62/C/hNUJ9SCUA39iyEJDwyBVfMaUWtIs90lMFTQZSG1utNBUHmmHpleLdizywMRCoBAJeagce8GDlCYM2vLmbEzIE00B9ZUDsuSMMzPa7zorYAiwN7ReoBcK8ZyGeGuaLXROqMaCRtaakxuXC9VmJWBmm74xFXrf8GFCeeJZJqAMCtZrDcVS9xJXxNdCqC46k4BoAQh6wrq9qCNPXQuVYCwfT4EaQjAJCBmoHI0yOh6SVbU3XMvLR8PyEt0DT1bQ+8IFN6B7EvSFMmXQHISM0gdGnFDExNfTZYHGHp20MXlQa66Dq8ditH1kkzyyWAUkFJRroCABmoGaALEZlb7Tgdwgcx66pqU73IaJ+525c4jqpga/23BvQpiXQGwLVm4FI3dUVvLGjSSgzlo02vstbrDflqlfk4HvXuO/Cp9fshnQEAu2bgKAYFvc8AwFo4rh4n6UNOb/jq6qYg6/KY8dGBfdWbNtIdAOl9Bh75tCtaSajEbMr3rW8YUws3a0WhwiDr8pjz9GPi8/rTRboDAHbN4E0nQ+CaARCeU9OGJro8/1HXDoa+WK1WmY/Te7DbS+t/QmYMSiYCEEOii6dSM8DUjPClZY7a00jCV1Qc0QzF2mQcj3mvN6Co9fshEwGADNUMzBmlU0REl+a0Is/YarYWBXq8gcfM72XA60H69SJTAYAM1Axsnai2EGedaMiaHy0MMrvNw6fAWr8fMhmAncAfnQyp1Az0qFVjVFsfJn0/LvKBXmP5n0A6Ao+7fwJr/X7IZAAAfgU4JtRBawYA4QXRlph9QQRADE6Er4oGmt3mcf9bSlq/HzIdgOPYQUgilZqByDOscFvJ9uHP4emlO7R8PRKkL487QFPS+v2Q6QBAJmoGgDm7og1T2ysM8Yl5WXkgvcfjHuiUtX4/KM8KC0AM++r4m0mGgUGGevspn9Ws3KkQAq3QPGJMKhjUK8Nq06HjtD+4gp7N0rH/28DHQfpVYTTOALDnyKe9ZmC0FE40mgsD3VA3Glq/H0YrAAA/wmE6eio1g1QYDa3fD6MZgM1koGYQBA+t/yHSpPX7YTQDALZQl96agSIeWv9x0qj1+2G0A9CJ/YTGJFKpGajgQ+s/kHEnRjDaAYAM1Qz84EPrvzdjK5cwGmloItL7DIb6ziCECHSfgR92PrrSbey/FvtJW6PKWJwBYM+hT3vNwA0Prf8dxujhhWMVgMzUDFzw0PqV5/Wni7EKANg1g6edDKnUDJzw0PqfIkNavx/GMgBg11jTWzNQ6yujWr8fxjoAGakZjMRD678b2C4zjgZjHQBwqxk8tCJwzQB8af13BO48TYxFGppIP5JnEw2e6kOPhChpVX82EcCep1+n6/XNMvNNjOHYP0w2nAGQgZqBh9b/EaOg9fshWwIwiP2DnGw47XpXupSdS1/2mtev/ty1DJAtAQCXmoHHcxmSOLmnk/0vSu/vWAksV/YuQ2RTACBNNYP2B6TK6qhq/X7ItgC41gwOr/W+XyObtH4/ZFsAwKVm0L54hWvNINu0fj9kYwDcawbL5c94yjat3w/ZGABwqxk8utIxu8lGrd8P2XAh5sQA9pnw9UTDUPzKuCyhZrBzafZp/X7I1jMA7Ln4bzgZOp5985yaQe+Bo3T8I/u0fj9kcwB81wxctH5pH9lCNgcA4G3sZ+4n0blqAz2bdtta/2vSR0uMqdb/WWEikheyFbXUx4pa6mWviTodb5sjDQR5JeGYS82fJQpRe9trJ6m9BDSHA9fhPwCOL/PJkRo6to7jtfM3A8ovYMjhj3l4B0DlnZM5ArAC+c5P/4SiHEmcj/2UqsSdP4DkHZI50s99JAcgK8W2zyphbMX0UHxZhP0+sRw5cuTIkeN/hv8CuflD+2ViCfIAAAAASUVORK5CYII=;" vertex="1" parent="1">
          <mxGeometry x="450" y="160" width="80" height="80" as="geometry" />
        </mxCell>
        <mxCell id="lzqDUzzG9wcNbirKXYka-9" value="" style="shape=image;verticalLabelPosition=bottom;labelBackgroundColor=default;verticalAlign=top;aspect=fixed;imageAspect=0;image=data:image/png,iVBORw0KGgoAAAANSUhEUgAAAGAAAABgCAYAAADimHc4AAAABmJLR0QA/wD/AP+gvaeTAAAODUlEQVR4nO2be3Qc1XnAf9+dlWXJlu2VbQyy2J07u9gBzBuSJgFsCI/yTBs4aYgJcNIcOBQKoZySBE5fSfMgPSFpTwM4NKExzxJKDDnHvGIeCaEJCSmFGIdktTMrS4DNsS0jW1irnfn6x8zKK1uyJNu85/fPnrlz753v3m/u3O9xF1JSUlJSUlJSUlJSUlJSUlJSUlJSUlJSUlJSUlJSUlJSUlJSUlJSUlJSUlL2CrJjgbX2bBHZqKr9vu//39sh1PsJM0rZYar6D8Apb7Uwk6VQKHzEWrtsyZIlmXeALEVr7W2e531sMu12UkC1Wr0RWADkCoXCUfl8/sC9JSQgCxcubJto5WKx2JzL5bIdHR2tjeXW2uOstSuiKPoFcPHatWvb96KMk6JYLB7sed7NURStBs5X1SMn036nN6e5uXmxqu4LXBJF0XHGmEM7Ojqmv/zyywN7QdiDqtXqc9baDDAEbAGqwFZgGjAlqZoFCMMQx3FwHOdRkhXpuu6FwH+OGEQm88aeyrY7FIvFGWEYPg3MaCiOJtPHiBVQKBQWqeq9xBPRBPwKeLq5ufkRa+11hULho3sicKlUWi0iRwK/T/rPAlVV/aGqfltEviki3xOR60XkbmLlICJd9T6CIFguIkuB4UnfunVrbU/k2l1KpdLrTU1NBeCeepmITEoBIzbhefPmTWttbd0C/JF4kl4VkQdUdXlSd5aIfLalpeWO1atXV3dXcM/zPqaqP00ub/N9/4LR6rmu+3ERWQF8zff96xrvWWv/HbgMwHGcqaVSaXB35dlTXNfdV0ReAVDVq4Ig+M5E2w6vANd1T21tbb07uewknuyXgTZV7QB+kTzgBwMDA8+7rvtnrutO3R2Bq9Xq7xsudax6QRDcDzwK9I1ye7iPzs7OcHfk2FsEQbAOqMsw5nhGIwPguu5iEbkHGAQ2AJuAj6rqscSrYLqqrheRa4CXVFUcx+lR1b+y1lrHcW4ulUqrJ/rQpqamCX8ypkyZcs4Yt962N34UlFgBzmQbZgBEZAHxhtiRlBsReSCKoseB9caYfsdxLq0vc9d1p27ZssVpaWm5VkTODMPws9ba83zff2DvjGc7L730Uv94dfr7+3fyZ95GJiVLxvO8L6rql4HHgUERuT+Xy/1tpVI5EVgfBMFzEE+653mHqOqfAMe2trYe6zjOEf39/WFra+tpwELXdacGQbBtrw9pHLZt2/ZOUsCkyKjqZSJyZRRFr4hIFEXRkv7+fhGRuaq6n7X2O8ABQFsURfcaY+6IougnwOJSqfR60s+9e1swz/NWAxeVy+Vfj1d3cHDwHaMAY8zkVgDQo6oHAyeJyE3AGRs3bpyjqh8RkQLwCvB37e3ty1999dUZvb29G4rFYiGKogzxcpvUpjMRPM9boKoHqeq4nx+AWq22q0GbfD5/qjHmQlVdJCL7AIGqfi0IghVjtBFr7bnAFcAHiM3l14BeYJnv+7fs4nnDslhrv6KqBRHpF5E+krmKoigSkWW+71cywErgChGZo6qfSNq2GGP6VfVCx3EeK5VKPb7vQ7xBU6vVzjHGHJHL5VZ2d3dvGm+CxuEEa+2yZJCtItKqqgcBVKvV7ol0MJYC8vn8hx3H+Y+kv9uI7fW/BI4RkXvy+fxhlUplzY7trLX/AlwN/EREvgBMVdW/AI4HrgHGVICqDstijHlcVYuqerHq8Hv6HPCiMaYJIBOG4R2O4/xTcnOdqm4xxjwfRdHMTCbzYBRFLZ2dnS09PT1vNHRcAtY2NTXNJraY9oRm4tBHm6pOBeYC+wDRRL3voaGhnUIqyX71M1XNAA/5vn8hoLlc7nbHcV4CmkRkMTBCAcVicW4Yhp8H+nzf/zjbV/hN1tp/Ay7L5XLZXbx4wwro6up6zFp7FPApVV0JXB0EQaMJjunu7i4Dv0uu54lIQVVPAfqGhoYyIjIjk8mc3dDGKZfL9wF/DMNwzkQmaBwe9H3/BN/3jw6CYJHv+/uq6p1MwpqYM2fOTnWjKOon9hUeqlar55NMZDLeXgAR2SmGVKvV5hObkzM8z1vUcEvz+fxVqvqlCYrlJCvp66p6aRAEZ+w4+bDdDF2lqocQm6IbVPUbQRDc7LruqVEUnWyMeaihTZgMcI4xZtJ27wRQY8w3VPXTE20w2icoCIIAOGSMJoMwetggk8mUwzCsAlNU9RnP85aFYXh9pVJ55YknnqgB148jjixcuLCtWq3eCZwJfCYIgtvHqmwAVPWx5Ho6kBeRk6y154vIX0dR9N0oip6qd15vOG3atKcSD3mvUy6XXxCRMyZaPwzDCa2WBQsWzHFd9xKgAKCqO3nQiWV3LfGKmaqqVxpjuqy1/1osFjsn8JgTq9Xqr4knH1Ut7KqyAXAc50mgAjyflPcCVRG5qVKpBI7jzPU8L9fZ2Tk1n8+fUCgUFg0ODuaJv9dvCuVyeeVE60ZRNKYCrLULXde9wVr7wtDQUCAil7A9BDNq4Mz3/W+JyJls3x9agCvCMHzRWvvJccT5UwBVXQ0gIl9yXffwsSobGNb6I6r6/aT8XCCnqqd3dHS01Gq1RUnEslVEojAMl9ZqtemqOuHY/pvJaApwXXeW53l3AS+KyHEi8oXW1tZ23/ePBEow+gqoUy6XV/q+v0hEPl2fTKANuNVam9+FOKva29sPIV4B/UCziNw1b968aaNVbrQe1opIfVOdp6pVYFpzc/MTInI58NtMJrNPEARPGmP+u1arPS8iPbsQ5C1jNAWIyO2q+ikgGBwcXFwul1c2RHCjHX6HKRaLc2lYIeVy+a4gCA4VkWuTslZVXTKWLCKy6tlnnx0KgiBQ1WuS4g+0tLTcwigJsOECx3FuBT5MbBE5IvItVb0ZmC4id/u+f3XdZi6Xy7/p6el5Q0R8z/PG2ujGRFWzjTJPtv2O7URkRFQ2SVGellyu2dGcTUxTjDEjMm0AYRjeYq39xx2Ko3K5/HXiMD3AiOclUeEMQBRF9aQSQRAsAx5OZDzP87wb2WG8wwoolUo9QCAia5OiDPBJYF2SRNkJY8xTick6KUTk5IbLwzs7O1sm2wex71CX4/TGG4m10ptcnuh53unFYnGG67qHu6779yLiJfcut9b+0Fr7vYbmQ8B11tp/9jxvZr3QWrsQmE9sQT28gyyHkcyliBzTUK5hGJ4H/AFAVS9xXff2BQsWDJvvI7Thuu4SEbkKqNv9T4jIxVEUzTfGOIk7vbarq2s9QLFYLIRheJXv+5ePM1kk9edGUfRlVb2IkW/RNlX9LbA8eWt2hbHWfhO4nNiJg9hi+SVwh+/73wWw1l5AnLpsHONWEbkNmJV8ngDWRVF0aaVS+TGA53nfVtXP1+USkXIURSoiC4EB4HO+7/+oYc4uEpHriZ3HOq8CP69Wq5f29vZu8DzvAFX9JVD3O0JgjYhcOtqxlK8Su+vzkqII+BHgAQuBp4E7fd+/Lcmg3WmMub6rq+vpcSaOXC6XNcZcICJbRKRPVYeSScxCnHosl8urxunGWGuvVlURkT4R6Y+iaIqINAO+7/uP1it6nneMqp6lqhljzOqmpqYHkvC2WGs/IyJD1Wp1RaOXD3FqNgzDo0WkICJtURRtNMaUarXagzt6wJ7nfSKKogOMMf3A5mTvBGBgYGDlunXrtib1jgbOVdUtSYyrzxizYjQFHA8sJVZC3dG6H/g+8BXgYFV9JgiCj0KcSRORv/F9/zQmmZBOGWVX9n3/ZyLyBtDovfW2t7c/RPy2DhhjbqzfCILgYVW90lo7VuYqZReMFUXcz3GcG1R1NnAycXhiqYgocfTUAdY4jnNWqVTqgnj/UNWWSqXy4Fsm/XuAUWM5mzdv3pLNZmeIyBBwLHGYeKmqThORFhF5knjjbOvr6/s5wPTp019vamo6Z9asWa/09fVteAvH8K5mtKOJAJTL5VujKNIkMlkDRERqwICqngkcpaqZXC5XN+lIQq6X7b///m9KjOi9yC6jmfPnz//V0NBQTkR+AxwvIuuJkxGbgdeBacaYy7LZ7JFRFK3q7u4uzZw5sy+TydybzWYf3bRp08a3YAzvanapgNdee63a3t7+mqoeKCJPARcS+wiHA0URyRCn7Nodxzm7ra3toe7u7jXZbHZbFEXL2tvbN2zatOl3u3rG+50xP0F1yuXyHxzHuQ+YDVzHyAzYemLP0ReRF5qamq4EpFwu/8AYc5qqHu953n2FQmHRKF2PkMPzvAN2dxDvZiYch8nn8/sZY64iPju0dKx6qnpaEATDCZwlS5ZkKpXKDao6R0Ru9X1/FQ3+QrFYnFur1VaISKfv+x7bT5i9L5hwRmvz5s1b5s+f/+TQ0NBxwNFAD/GJ5sbY+lYRmT1r1qx9+vr6nvE8L7dp06YPGmMeEZF+4M+z2ewXs9nsh7LZbHbmzJkG+LGIHA2c0tfXNxxdLRaLzRs3bnzPK2O3IpGJW/05VV0LLAEWE592buR/iQNmz4rI/6jqScAyEVkDHKqqlwAzROS/klCCQ3zqYDPxEZATRWS5qhpgtu/75+/WCN/h7MmBJuO67lki8kFgjap6wIeMMYPJnxTqSYt+4iDWVuJj7wPE5+n3Yfvq2Up8FH0mI/clBYZU9adBEEw4RfluYq+cKEuiokcARlVPFZEBETlYVacQRz37iBUyO2nSxih/DiHe4B8BXgA6VHW567rPJuHl9yRvxpE+yefzruM4BwKzgG3AtiiKmoiPvE8H9gX2J95HAqAShmFvW1tbaU/+d5CSkpKSkpKSkpKSkpKSkpKSkpKSkpKSkpKSkpKSkpKSkpKSkpKSkpKSkpLyPub/AXTbu/K4AMUcAAAAAElFTkSuQmCC;" vertex="1" parent="1">
          <mxGeometry x="442" y="290" width="96" height="96" as="geometry" />
        </mxCell>
        <mxCell id="lzqDUzzG9wcNbirKXYka-10" value="" style="shape=image;verticalLabelPosition=bottom;labelBackgroundColor=default;verticalAlign=top;aspect=fixed;imageAspect=0;image=data:image/png,iVBORw0KGgoAAAANSUhEUgAAAGAAAABgCAYAAADimHc4AAAABmJLR0QA/wD/AP+gvaeTAAAF+ElEQVR4nO2da2xTVQDH/6fr1s7uxboBHVuEsQVxorgNlLmY8EEGJsJQ5yMRQ4IikRgjIhM1hkSJwtDgB4KbwAc1fhgGNkRdNEETKK/QKQlPNzbGOjY292rX0q1djx+gZGYpnHvbu7Oee35fe/7n/nP/vfc8cy4gkUgkEolEIpFIJBKJRCLRCyQalVQU1CakpyWtBCUrABSCIhsElmjUPWmg8IDACaCREFLXO+Cq23/+hZFIq404gHUlDc9R0O0AciOtK8a4AoJN1fZlByKpRHUAFRW1cdaOpG0U5N1IDMQ8BDts9lOVW7AlqEZuUHtdefNvQ7HxesnCz9TKVT0Bt187P6q9qIhQSlfWnHi6TqlO8RNQUVCbQEG3KdWJDgH5sqKgNkGpTnEA6WlJKwHMVqoTHoJZU1KSVyiVKQ6AUlKuVKMXCIH2ARDQIqUaHVGsVKCiF0RsyjW6YYZSgZpuaJIKjV5QfG9UjwMk0cHI68Jf25dGrS6fJwCv2w+P2w+vy48b7V60XRzEJUcvejtvRu06WsAtgGhithhhthiRPj0RADCnyAqU5wAAWs8P4Mj+Nvz15w0E/KpmCzRFiADuxqyCNKwpSMNg7zAO7v4HJ3/t4G3pf+imDUi1mrD6o3l4e+cCZNgSedu5g24CCDF3gRWb95VgTmE6bysAdBgAAFhS4rG+qgizH57C24o+AwCABHMcXv9kPiyp8Vx96DYAAEjLMOGZNflcPcRML2jdEw13/d1gIEjNMOGhkkyUvZLL3NCWLs/G4b3NGBqMeHlXFcI8AcEgRX+3D0fr2vHpq3ZcOP0vk84Yb0Dh4mkauwuPMAGMxecNoObDv9HXxTYKfqDYqrGj8AgZAHArhIbvWpjKZs3iN78obAAAcO5ED1O51Ayzxk7CI3QArj62htWUGKexk/AIHUCK1cRUbmR4VGMn4RE6gHmLMpnKDQ36NXYSHmEDMFuMKFvFtlvy+hW3xm7CI2QAZosRb2x9FOnT2BrXy419GjsKT8yMhO+FwUCQlmnCvJKpKFuVy3zzRwMUjiNdGrsLT8wEEM0lzLEc/9mJgR6fJnWzIOQriJXezpuor27i6kG3AXjdfuza5OA2CRciZl5B0aTH6cWuykZ0XR3ibUV/T0BPhxe7358cNx/QYQCZM+7Dx9+X4q0vipGdl8zbjv4CCFHweAY27y3B4ufv5+pDtwEAQJyR4MV35uKpl2dy86DrAEI8++Yc5D3CZ4dEzPSC7rUmHMJkjkNWbjIWLLHhyfIcGOPv/R8jBoKXNjyIravtoDRSp8oQ7gkY9o2i9cIAandexOevnUB/N9soNzsvGfnzJ36zlnABjMXZ7Mau9xzMm3ILF0/X2NF4hA4AuBXC0fp2prIz56Zq7GY8wgcAAKd/62QqZ+WwaVcXAXS2so16E5Mmvk+iiwBYzwPgsTasiwBsM9n2/XgGJn5tWBcBPFaWxVTO1T/xU9PCB5CTn4LS5dlMZXucHo3djEfoAHLyU7C+qpBpNAwAzWf7NXY0npiZimDFlBiHGbOTsXBJFkqXZzPf/OAoxdlj3Rq7G0/MBKDVonyIxj+64JZtAB8C/iAO72vmcm0ZAIBD3zShq23iG2BABoBjh9rx+w+t3K4fM21AtAkGKRq+bcFPe5omfA1gLLoM4OqFQdR+dREt5wZ4W9FPAD5PAGePduNkQwcunenl+q8fi1ABjPhG4XX74R0K4KbbjxvXPGi77MK1yy44m1zwj8jTUu7AusYrOrrvBfFGTQCTY0/f5MSlVKAmgOsqNHpB8b1RE4BDhUYvnFEqUH5wKyGKD6jWD7ReqUJxAEFfxkEK8Jm5mty09A0OHVIqUhxAjaPYTwgqlerEh2xQ80kTVd3QavuyAyDYoUYrJmRb9fGlil8/QATjAJv9VCUoqtTqRYGCbrcdP/mBWn3EH/FZu+iXchBSRYC8SOuKJSjQTEA2qv3nh4jKZ6zWFp2JR0JP+e3z84sAZEO8Q76HADgBOABaR4en1tc4ivkdMiGRSCQSiUQikUgkEolEIok5/gOUZp9kOP8a9AAAAABJRU5ErkJggg==;" vertex="1" parent="1">
          <mxGeometry x="560" y="152" width="96" height="96" as="geometry" />
        </mxCell>
        <mxCell id="lzqDUzzG9wcNbirKXYka-11" value="" style="shape=image;verticalLabelPosition=bottom;labelBackgroundColor=default;verticalAlign=top;aspect=fixed;imageAspect=0;image=data:image/png,iVBORw0KGgoAAAANSUhEUgAAAGQAAABkCAYAAABw4pVUAAAABmJLR0QA/wD/AP+gvaeTAAAWI0lEQVR4nO1deZhUxbX/1e19naFn6+kBZmNYZJFhE3AwY6IiQtTgM3kvL1EMJgPRqInfU6MENDwlwS9qjIiGoKBP8p6KRgUVHgiKoA4IgqwzQ7PMwjBrb9PLdPet98ft7tvdt6en9x7y+H3ffHNv3bpVde/v1qmqc06dBi7jMi7jMi7jMi7jMoYS2tralB0dHepstyNZkGw3IBbYbLYir9c7BUAVwzBVlNJRAMoBqHx/w8Ju6QNwnhDSQik1EkKOUEqPaDSa/YQQV4abHxeGJCFtbW1KlUr1A0LI9QBmA6hKRbmEEDuAPSzLfujxeDbk5eVZUlFuKjGkCLHZbFeyLHs/gH8BoElzdWYALwN4WqvVdqW5rpgxJAixWCx5hJDllNJ7AIgyXH0HgF9otdr3MlxvRGSdEIvFMgvA+wDykymn3+UGCCCVShK63+12P6fT6X5DCKHJtCNZZJUQi8XyfQD/A0ARLZ/Xy+LcmYswnm5DW2s3LrT14EJbNywWO5yOfvT1OUEp9x4ZhoFGq0RengaFRbkYWVaEsnI9rphQCp0uuhTs6el5vbS09M5skpI1QqxW6zhK6X5wsyQBbFYHPt11GF/sPYGGk81wOvuTrnNkaSHm3jQd190wBQqlLGKehoaG9dOmTbs76coSRFYIoZTKrFZrPYBJ4desFjveeG0ntn98AB63N/YyRSIQSgGWHTRvTq4adfcsQM01EyK1jW7atGnp0qVLX4658hQiK4RYLJbFAP4Wnn7qZDNWLn8dFrNdcI9XpUJ/Ti48ajW8KjW8ShW8cgVYMQMqlgCEexTG4wHT3w/G5YLI3gexzQJJrwnS3h4QbyjBt952Ne76+Y0gJPQ12O32rtmzZ88zGo0HUvjYMSFbhBxGWO8wnr6AR36zLkQ09eflwzF8OJxFerDSyCImVhCvF4rWFqgbTkLkdAbSF/5wDhYtnivI/8477/xt0aJFj4GbhWUMGSfEbDZPJ4TUB6exLIvf3LsWxtMXuHOZHKYpU+DKK0h5/YzbjZzDByFvbwcAEEKwfOVPMXX66JB8Nputo7KyconD4XgPwOByMFXty1RFfhBC5oSnHT5kDJBBxSJ0za5JCxkAwEok6J06A67CQq4+SvHKXz8Cy4ZOrNRqdeFdd901AUBFWhoyADJOCIBZ4Qn79hwNHNvLKuFVRZx4pQ6EwDR5ClixGADQfL4TB746Jcg2b968iQDGIYOSJBuEjAlP8PcOAHAU6TPSCFYqg6O0PHC+/6uTgjyVlZXjAKgB6DLSKGSHEMHDXbzYGzhOe+8IgrOoKHB84vh5wXWNRuNva3GGmgRxpioKQm54gsPOz6xYCaf6GJkrx4rryjGmQInDF2xYufMs2q2p1Zx7NNrAcU+3VXBdoVDk+A7TM6BFQDZ6iDI8we328Ce+NcETN1RgUrEaMjGDGSO0eOTa0pQ3xD+GAEBfn1NwXSqV+tsqaHO6kA1CBh0gGUIwriD0HUwoSoMoC1oQ+nVh4Tl8/+WprzwyskGIACErZUrBUorjHX0heb5tt2W4VSGQZqqibIwhMWH5diMe+24ZrihS41CbFat2nctKOywWyybf4aag5D4A7b6/vYSQbWq1+nNCSNIa0KFBCAFAg0+AFrMLS98Vrg2GCFQAKn1/V1NKH7JarR0Wi+UZm832F4PBIFTGxYiUEdLZ2amRSqU14BZ+swghBnBT3GEAoiqiCAiojxHuKOt2s0RQCOAPKpXqHovF8mOtVvt5IoUkTYjJZJrGMMwSAP+KAWwbgyFkCEm2QVkGIWQEpXR3T0/PozqdbnW89yc8qPf19RVbLJbXGIbZD2AxEiTjnxGEEJFYLP6j0WhcGe+9CfUQs9n8U6/X+wIA7aCZY0D4LAskOyLr5rnLYsonk0swbJgGo8cMx4xZY3H1nAkQiYTfdn5+/mN79uxxzZkz5z9jbUPcT242m+8nhDybyL0D4bYFjwcWh9ct+zkYUWKOJ16WYrexFy3m2Ff0xVuSdzYpNuhQd8/3MWWa0H2MZVn3Cy+8cNuyZcs+iKWsuF6q2Wx+ghCyfKDrfX1O7NtzDMePncPpxjaYTDbYbI64TLGbtzwOiSTxoa3Z5MTC17+NOX+t8SBOHW9OuD4/CENw5103YOEPBdYFdHR0NM6cOXNBV1dXw2DlxPzkFotlAYDfRbpm6rXhvzbuwKefHIbL5Y61SAEYhhGYU9ONp5+tCxzL9v00pnuc/QzaekX4skGJf3ypgdkuAmUpNqzfBoVShnkLZoTkLywsrHryyScfqKur+y04B70BEdPT2+32Eo/HcwQRNLWff3YUL/75PdhsjpgeZkAwDNQTx+K622shYhIjxeFmsa2hOy6Rtf9X0wPHsRISDKuTwVNv5+Pgac6TSSRi8Ke/LEVFZaiC2Gw2t44aNepnLpfrfxFlMhnTk1sslnUABK4xW977Eute2goaZG1z5+TAYSiBe5iOc0KQyUATHBPSDamIwd5fTuVOqBeyLxYlVI7bS/DQxiIcb+aWW6PHDsfqZ+vAhH1Ya9eu/dPDDz+8BsCZgcoadNprNpurAAhaeqD+FNat5cnwKpTomTELXXNq0VdZhX5dHrxK5ZAlAwDyVbyXI/EKtb2xQiKiePS2Lsgk3LtoONmCgweEw8XcuXOvAXAFonSEQQkhhDyIsLHGYrbjmdVvBzSk7txcdH2nNmCnvlRQEEQIXN3JlZXjwcJZvDP9e+/sE+QpKyubpNfrCwCUDFROVEIopSIAPwhP3/zmZ7BZuTHDq5Cj56rZYMWJ+dRmExP1/P4eYm9Nurybp1sh9gmEI98Y0d0VutuBYRjZr3/964ng9rZERFRCbDbbNeB0NAE4nf3Y+sFXgXPL+EkBK9+lhmsr+X0+jDV5RaZO7cXkcu5DpZTiQL2wzJkzZ04AZxKOKMsH6yE3hqft//IU52kOwKPWwKnPmLk5pTBoZZig92l7KIWo95uUlHtVFT8WfXPwtLBeg6EMHBkRX9xghEwNTwtm3WkYUBQOefxy1nAwfvdTy7GkxxA/JpTy0/+mRqEYzMvLGymVSgmAIsFFRCGEUkoIIdXh6cGVuAourUHcj/FFKlxfxYsrceuWlJVdWuCBVMxNdjoumgJjbaAusVg+f/58PYT7IgFEIcRsNpchbCHodPajpcW3+4sQuHNSolvMKHIVYjx1YyXfO8xHQUzHUla+iKEoL+QMh5RSnG5qE+Spra0tA0eIYPo7ICEMw0wOTzM2XQisO9waLSgzdNcYkaCUMHhmfhUMWm4BR7wOiJteSXk9VQbekhuJkNGjR48Et5QQbOMeUJdFKZ0crlcynuYLd+cI3KuGNEq0Mjz7/VEo1/m8WSiFuGkdiKsz5XWVFfL6vNYW4X7S/Pz8PN/hMAAhDmEDEkIIEcyVm8/zjfdoLw1xJWYIfjChAEtmlkAr4x9XfPYNMN3701Jnjop3lg9fiwCAWq32jx+5AEJcJqP1kOLwHtLZwSsqWVly+zXSDb1GhjnlOfi3K4swIjfIrYp6ITZuhOjirrTVnaPgzQ0mk9B9SS6X+0WVwMoaTf0u2BXb28v3LlaaMVeliNDIRBhToEKJVoZchRgihiBPKUGBSoKSHBmq8pWCEZO4OiFuWAvG2pjetil5QvpdHsF1sVjsf3mCza7RRJbAfdLl5GUjK8k8IVq5GPPH5mHu6DyMLVRCFKPthHgdYNo+gqh1Kwib/ObRwaCQBmm/3REJ8b93wUuM1kMEMim4cJqEVS9eKCQMfjbdgB9NKoJCEqNfBvWCsZ0G0/klmM69IN6EXaXihs3Bt1EqE6qVPB6P/8sWTFOjvVXBpyQS8/cTj5D5dGBKiQZPXF8OvUY4ZjH2FsBxAcRtAjx2ToXutoC4OkBsZ5NSqScDaxAh8giEeL1evwUtLkIETxNcOONOf9e/fVIhHrxmZIhooh4nJBc+gqhjN+DqSXsbEoHZzr/nYRGCFdjtdv9gLHA2iEaI4GlzcvlJAelP3HYeC/69Wo8HakYEzinrgaTtA4ia3wNo7E4T2UCvjSckL1+4PDCbzf53GzshhJDWcBf9/IKcwLGoP31hp24YrcP9QWQQx0VIj/8BxDVkgvZEhbGDlyQjS4U6xK6uLr8mUyCFoq1DBHu8SobzM2GxVbjjKBUYmSvHsu+WB6asjKUB4uOrQdghHXcsBI1t/HhXOUqoZT9+/LjflV/gGRJN23skPK1ylCFwLDaZ4mtljHi4tjQwkyKubkhO/fmSIsPlIWju4r5zwhCUVQg3sW7btu2s71Aw9RuQEELIwfC0yipDwG9KYrHEFFckHswamYMZI3wyl1KITz4HuIdc0LeoONMuhZfl3tHw4fmQy0OXGi6Xy/bJJ5/4ZW9v2O0DE6LRaBoRpvhSqxUoLOKUioT1QmJLrdi6Yyr/NYm69oLpOxsl99DE/tO8miZYovjR1dUV7AIkmDhF6yEsAIFdc1QVbyWU9qRu2mnQyjB1ONc7KKUQnX87ZWVnEru+5TXqM2aNE1xvbm72f2UuxCOygMhi68pqPtKEtONizA0dDDVlOYGB3NxzDiRFJtVM4rNjSrR2c+OHTC7B9BmCGAnYsWOH/yMXiCtgcJv67vC0GTPHBsYReVdnSGSdZDDZwC+g5KaMR0VKGma7CC9t462yC26eBZk8dJXudDrNzz//vN8pIX5CbDbbdl9o1QB0eVpMnOQzlbAslOdSI+crdLziU2NPnUk1E7A6GDz6eiG6rVzv0GiVWHh7jSDfiRMn6p1Op38mJDQlYhBCDAaDnVK6PTz95oWzA8eqM00QOZJ0tAZQqOZnI6Q/PVPqdKC+UYElLxnQ1M61nzAEDz58OzTaUGU5y7Le1atXf+g7dQKIaKqMRWW7EcCtwQnTZoxB1ZjhaDzVAuLxIvfQ1+iZeTVogl7rAGfv9oO4o3rsZw0uD0GvVYROqwjHzsux+6gSZy4GfUgMQd0vF0TcuHP06NFPt27d6h90mzGAB/yghGg0mvetVusJcGGKAAAMQ3DP/bfgwV+thdfLQtrTDd3+L9A7ZXrCXowhWxDY2PVk3oI58FbeCcokZsHc/OZn+Ptrn6A/gt0iHqg1Ctz7wK2YXTNecM3lctkeeeSRzb5TFoAw9JAPsThbswAEu0krKotRd8+CwLm0sxMFu3ZA3XgKErMZxJsZ9TyrvzZhMgDOKToZMmRyCeYtmIG16x+ISAallK5Zs2bN559/7h/EjQAGDEsRk4yhlIqsVuseRAg+9s5be7Dxle0he0QSBWEIZteMx/Jrt8Z8j7egBt6KO0FFiYUj+dGtv4fDEZspQSIRQ61RICdXhVFVJRg/oRSza8YPGHIWAHbt2vXmLbfc8g/fqQvAR4igw/IjZqFvsVjGUEq/IYQInvzQ1014ec0HaGtNfu1ACPDx8syF0bj5yZFwebjX8Nb7KyCLYFBKEHTHjh3/vXDhQv9mTwrgUwAXotwT+z51rVZ7ilJ6HyIMRtVTR2HNuvvxH7/9Ea65dhKKDTqBDidWRA7Kkz54gtRxYnFqHP/cbrf9tddeezGIDAD4FoOQAcS5Tz03N3dda2urQaPRPB5+TSRiMKd2IubUToynyABi3SOearCUFxLhW9ASwdmzZw/dd99963fv3h2sVzoM4Hgs98ftqVBSUvLEoUOHZBUVFQ8RQi4tX9IICO6Rie4A9ng8zmPHju199dVXd7zyyivB8tYN4ACAmFfPCbmOVFdXP7p+/fpj8+fPf06pVCb1qwaXEliWdbtcrj6Xy2Xt6+vrbWpqaqyvr2/csGFDQ3Nzc7gOqRUcGXG5uyTsy7N48eI3Kioqjixfvvy+G2+8caFSqcxY5M5MQqvV/jiO7B5wvaEJA+iqBkNSzlVGo/HbRYsWParT6T6uq6ubXFtbe2V5eflolUqVq1AocsRiccZC40WFTAd3+R1g1RVgLA2QnHkdSE4bwIKbwvaDm8J2gVOFdIEjJWGkwtuts6en591Vq1YdXrVq1QQM8lsgQEiUtoygv/IXoLncoo3NvwpuRgzJyefiLebvKW9YBKTK/ZAF102N4EKq6n3/5eAIymLkOgKqDY3rTnOuyFJbBkeqXxQL4KLvLxreQNiilBAS2Pee2ghNFIyjBawqaHeFLeZJT8bjqWUrKqlAv65S8cONzZXaZokb/wrSx81GGZsRktPcrim3l2c90grd7XZn3N0lW6KkA2GbHofp1IEANs2dElwxInXvgthbID28DGDEAMuPuXYnT0gkzYLb7c54bNps9RDBfuFx4/nI1ftOpSmQNBs6AWru5nuFvlg4a3c6nf7gwen1mw1CVgghhHwWnjb9Kt4h4MOvNTDZ09+0L4KIr4jgYdjZ2ek3s/5zExLJLDz9qrEYPoKLed/nJHj63fyAw1k60NwlwQf7eceKSLaMhoYG/1ar9Lv6+5AVQjQaTT24KTLfEIZgcd28gD7pQJMCv38zH33O1JOyv1GOBzfo4XJzZVeNLsHEK4U/pLNz506/h0jGbMrZ/B3DpZTSF8PTN67fjs1v8hItT+PBT75jxvcm9QXiUSWCXpsI+04psPOIGsfO8wYlhVKGP/7p5wIf3N7e3ubS0tKHfadfAxg0XmIqkDVCKKVym812ilI6MiwdG/62De++HRoYWiahGDfchSvLnajSu1Cs8yJH6YVGwRk0WAr0uRg4XQy6bCK09YjR2i1BS7cYJ1tkuGgSTiiH6TT43e9/EuKN6cemTZteWrJkif/L+BgJ6qbiRVZjelut1lpK6U5EEJ179xzFy2u2wNQbfeYpYijEIgTETyyQSiWYe9M0/PiO74Wsf/zo7u4+W11dvdxkMnnArZk+irnwJJH1IOsmk+kphmF+G+maw9GPndsPYtuH+3HubHJuqwqFFGPGjcTVc8aj5jsTIxIBcPv/7r777kc3b97st+59iSgxElONrBNCKSWtra2varXaO6Pl6+2x4tvDZ1D/1UmcMbajt9uKPrsz4FxBCIFKJYdCKYVGo4ShJA/FhjwUG3QoryxGeYUeDBN9DsOyrGvNmjXPP/bYY4f81QLYjgz+jmHWCQE4Uo4ePbqxtLT0J4izTf5gapG2H8cDp9NpWbFixdNr1671Rx3zANgGIKMbVIbKL+zQiRMn3vHWW2/d73A44ho8pTJJUmRQSunJkyf33HTTTQ8FkeEFsA8ZJgMYIO5ftvD+++/Xnzhxot5gMOTq9fqRIpEobcEc3W6348SJE3tXrlz58r333ruzra3NrzxzAtiNwTXWacGQEFkRUFxVVXXtihUrrq+urp5sMBiuEIlEScfysFgsF1paWhrr6+uPPPXUUwfa29uDV+AUwDkAhxBhd2ymMFQJAbjQHmMBVOn1etWSJUvG1dTUTDAYDKW5ubkFEolEIZFIlAzDiAFO9LjdbrvH43H09/e7rFZrZ1dX18Xm5ub2pqami1u2bDEeOHAgkghygwuR1IAIZoFMYygT4ocEQBm44MOFCBOzer1eCoC0t7fHo6+3grOBtwNoQYQN/NnCpUBIMETgSNGDC/6lBkeYBPwEhYL76j2+/3ZwBPj/epFFkfT/CSIMsUnKZVzGZVzGPzn+D094uwkJhNXoAAAAAElFTkSuQmCC;" vertex="1" parent="1">
          <mxGeometry x="556" y="280" width="100" height="100" as="geometry" />
        </mxCell>
        <mxCell id="lzqDUzzG9wcNbirKXYka-12" value="" style="shape=image;verticalLabelPosition=bottom;labelBackgroundColor=default;verticalAlign=top;aspect=fixed;imageAspect=0;image=data:image/png,iVBORw0KGgoAAAANSUhEUgAAAGAAAABgCAYAAADimHc4AAAABmJLR0QA/wD/AP+gvaeTAAAMB0lEQVR4nO2ce3BUZZbAf+d2J50HSASSoKirorOOFgO4QiwgbO0MM+NordbMCE7twuDoGMlLzAKGbjBegyRhRgc1NDDMlqDMyDKWtWPNS915ZCVZNWFWp3Qf42NnwRkkCQJCXp3uvmf/6Dy68+zOQ6nt71fVVflOzjnfuffc77v3O/frBoPBYDAYDAaDwWAwGAwGg8FgMBgMBoPBYDAYDIb/j8inHcAnhq/ERvVbIGcR/TkhfZrv7PqvTzus5EiAt/CvwXoJqAKuAm4HPMABsDZSXdv6aYWWHAnwlaxC9WGq/XMAWF8wk1T3RpB1QCvwXVRbEesYnplN2Hb3JxVaciRgU+GFiPUBKndTs/NQn9xXNB+VfcBngIweaQfwE+BJqv2vT3ZoyZEAgE3F30bYjktu4JGdfxz8/8ILQa4CuQOLNSgzgD14rE3YtWcnK6zkSQCAt/ggcCWe7CXYdmhYPbsgg0DKBuAB4BQi91C186XJCMmaDKfnLR7rXiCXQGtJjHxTyR34Sr7S17b3dlDtr8RlzQNOoPoLvCUPTEZIrslwet5S1xhg6cJWRCpZfkstdXVhAJYsBOFlFuftp6HxXJ/+K42nWX7L04Q7pgAVLM27kgV5v6SxMTxRISXXCABI4wUgi+7Wr/XJtvv/A6SSYMrpQfq23U21fz2wHtHVTHUOYNsTdt6SawQA1DV1k7/oatAvUd+0r09e39jAa68Nf1+ob3qV/EUtwEaczmwON/5iIsJJvgQALL3xKMI2lt3wzxw+0hy3XX3TEfLz0kDLWLawjcNNr443lOSbggBqat9A+RmOVZaw7XvNW4AXUdmGr/Bz4w0lORMAoNaDCH+Hr2h+QnbPPRcGViGcQ61nsO3U8YSRnFMQQENjM8vyLkJZz5IFP6Lhd4G4beubOlmadwooINQepL7plbGGkbwjAKAzZQPgxuW+K2Fbz8x9wOuI3I9dNGWsISR3AqZNCwIX4sj/Jmxr2w7oo8B0uqxVYw0huRMQPDkfSCWQ+uKY7D8KvQDyIaJFjLGsk9wJCDuLEH7Djh2dY7LfuzeI6hPAXLzFt4zFRXInAPkrHPnduFykWbuBMyjesZgndwKE2YhzcpA0ESKl6l0IiyNv3hIjuROACCrBvqa3eAbekh8l7sb9JNAF1qZETZM8AU4Hwqy+plAD+g3KS+cl5KbqiWaEZ4Cb8BVfn4hpcidArLdQ+UsAVqxwodwOCJazPnFfVBF5nbmDsrL0eM2SOwGqryF6EytWuLg6ey6QBTwLrGRT4ZUJ+drmP4pgoywjrfsovqJH8K3LHc0seUsRABdd/j9Mz1zLjMzjOFYWwkrAB3iw5IscbnouIX+Hm/6N/LxfAW6QVeBsJD9vKsuvbaDuzSFL3cn1TngovEX3gDwCvAbcisXlhMOC5WoirF9l+676Mfm17VS6Tt6GUAEqiK6iatebA9WSewQA1De9wbKF00BWgz5N1a4D1B85Q/7CI4jUsvy6/cNdvSNSVxemvvE/WZD3FCl6Kcge8vOaqW98I1rNjICR8JbcCjqfan/luH1tLlqMIz8Afk21fx2gYEbAyNQ3/oGlN7SxZNEcGpqOjdnP+oKZiAQRqw4oJz9vFvWNvwYzAuJjS8kVhEJKzZ74q6bekmtA7wG+BlzeI+0G3gVeoc0qo7Y24O4zsO1UOluvJhxu5dE9LWMO1rcuF3Vm8FHgXfbuDY5uMD5O21lZ6bhzwuGUqaMqu4IfZtonj0eLtOyS9I4pgWvAPcIj+fO0pbmCOStwyXPEbEn52L5kujscvqJPEA4ez6w6+SHozcA/oPwBS9dg6eu4c98fuCFM8BV+DnU9CboYSOmR/x5YSbX/nVEPqpfy4uuwOARc1yPpBg6DlFC987/j9hMHbXb2LAvXBlX9CnAN8a5nhG2ZdvMWgHP2rGst1e8CnwfS4uz6DMLzTkC8U6tPtEZiyVklKgf6NJQtmZXN2ygt9TBFG0DnIfItqnb+cCiHblT2gy4YIJ8HHKKgYFFcV7F9ZxoBfgxcGyVNBb4A+o/A0jgPcFQ67VmXO6oNil4cJX4bODGarTryPsCp8gunWehvgOiF0ikV3hIl5nhVSBGYjzINyEK52/LoTefs3Oun2s3DzxS1tQE2rL0Zt/UCcABf8e2IlrJt1wfRam6QucO4mM/M1DuAITMXQyBjDbEnP5rh/I8JB60A+k++yNZM+0RFIj7S0j2rVbX/5AsNXQRvnmGfGnIT7lnv7BkuT+jnKHkAKLNFuRuoHrGjR/e0YNv5dJ+sQHUjKm/iK/4GVf5/6VWxAHeUyXtA/91etTSO4xGQ+6PjRYgu8aYMNBgXSsxoDXQGHkvUhYNeFd0WRx8b7uQDXFD9548snA0xQivOC8u2Q1TtrMAKXwUcRPkJ5cW39buJJQRSG9VexObCG0fsIPIm6Jq+tvJ9lLa4ghsDMmC+nr799McJ+1DxxLatU6P3qzHTjShxF9wA2Lbnz1T7S7C4FotvU168DGKv/gge2UtAHwQuAMCxSoks04cjenNTEHXvREIrBmnZpRfQ5RT2tS3+SJX/x8N69ZV8GUf79+y49NmB8yeAFpAie5n0p60JY5v/KLZ9G4HW+9i89v3BTw927VmQZ6IkK9i8dvaQzspL5gJ/09dWPcT2J4ZesHRaWQg1fR9l5K0gql+N0Q/JFQAqxCShfVbO50f0M1GERCfMl207VPsfJ2VW8+ARAKDOE4gUEZmiUnBcBcBDg/QsXU/MYs71vQkLchjEYZ/CciTSr4j8U7ude0jgTLSeOtouFu0OvB3qSmvKqjk2eOdzIrhRJi4FEWw7NPTzc82u94CfRUkKse+MfVbesDYHuKNfoL+ipjam0DQZZFQ2HwRuQ3irR5SFcq8q5dEfRCpV5TFReSnFEzjeXpEz+AJKhIkcAVEMPQIARB9H5daeVjbdGSuB/qkpxVVK9A1RSfhpZKxkVjb/FPhpp33xZeqEFoJc7CAZYjkfgzg98VyKUIaSCaQhYrfZOa9OsVteHlOnbpn4EcBICaja9Vu8xW8CkRuhcj+9CSgrS0e61/YHJG9T45+U71CNRLp9/BjRj80D6LBzTivSd2EI3AiMKQEaQiejdDnaEv7x/j9lAd6SJQB4gmtQZkbpfQ8m4/oYJw5HYwUyrp3Mk8HICfBkHyRmie+UAoKl90VpNeNpOzgZwZ1XuD/pewBEvh/lLd4NPBwRyNfxFhWgfDZK60ns/V2j9xRUnJjq96RvCHAsMmNOm0MngAjtGiVXiakr0VGR83UVWRslOqZh5yksibIhAGA5VkCjOhFLpyUS4+gnIRjeA/SeYPeAlXI7ntQ9cfV01tUCRC/3r2fLfVfHGWfCqJ09RYg5iVjqRPbxOxqzHVEttnZtyZnT286obHke4bcoXwCWA3epJTH3DlHeBbCs0O+jH1AV+Wb7g9kDi5vDMvIIgEhBaVOxH6F3r0x0bWcH9o5Rl/FApDroKylEdR+RSukMwuF38Bb/iUjpeiAzh5DRbue+jDJnqP9F06HkAL379h1EtqZvbT0MkG41H+ogZzUqke8GK3PCLnmn/aHcPwGhHhlYhNC+482Icn8MCe8GSLNPvtP+UM5ukKIeu1ws69/bH8ptgdFLMqMnAKDd2szUcCYq3+wJpB3Yjyd7a1z2vVTtfBZv8RHgXpRbEP4CuCQRF6JcqhDPnh0H4QOUXyLWDzLtD4/0+bBxdEXL33Zcl7tG0TstZL4qU4HLYjwMPeuHxGFlxtb+FzuZD7cUd1TMqlPRVQhzUa4Acno+Ix9P5DcSekhzh0f9XYQH7prKd546N6JOecE0xBWZ3tI8iv34mWF1o/uPicyqBf4+SrKYav+rH9nTL3B1TRn1gXBa2rFzYhP3boY2X06u4FhBJ2PQ/cyV1j3PUn0emN4jOiWO3pqxtaVhKF9qX5zxcZfbM9T/BnL+vRMuK0snI7AcR/YBM3qkXXhSZ8c93U0C57Zc9FnL5bxI7ygRAuLI6ozKE4lt3hrAJ5eA8nWXYYWOjq44iDBQSrV/90SHdD4Q3z1gIlDHAeItiJ0GjiHyr4ScQ+fDT4sZDAaDwWAwGAwGg8FgMBgMBoPBYDAYDAaDwWAwGBLh/wCFoBCDSYo4JwAAAABJRU5ErkJggg==;" vertex="1" parent="1">
          <mxGeometry x="690" y="284" width="96" height="96" as="geometry" />
        </mxCell>
        <mxCell id="lzqDUzzG9wcNbirKXYka-13" value="" style="shape=image;verticalLabelPosition=bottom;labelBackgroundColor=default;verticalAlign=top;aspect=fixed;imageAspect=0;image=data:image/png,iVBORw0KGgoAAAANSUhEUgAAAGAAAABgCAYAAADimHc4AAAABmJLR0QA/wD/AP+gvaeTAAAGSklEQVR4nO2caWwUZRiAnz26pQfdbekFQREUNFQE5DB4hCBKUMA2ikTEWBsUvPAgSjDifQSLaEAUIooajIIQCzZe1ChW0XBogEi8sLDQ0pbtudtry8yuP2qV2p22u3T70e37/OtOpvPO+3zXfN/MB4IgCIIgCIIgCIIgCEJfwRTsCY1HzvWHI5BIIWbosaByag5XIELXEAGKEQGKEQGKEQGKEQGKEQGKEQGKEQGKEQGKEQGKEQGKEQGKEQGKEQGKEQGKEQGKEQGKEQGKEQGKEQGKEQGKEQGKEQGKEQGKEQGKEQGKEQGKEQGKEQGKEQGKsaoOIFhihh4P+PtNM2J5f82ATs8/elxj8/YGdv7o5fCRU1RW+/D5wGE3M3yolSsmRnNLZiwXXRDV3aEHpNcJCJVaj49Hn63hw7x6NL398XKXTrlL5/s9XnJfdzN7Ziwrn3KQMsAS1rj6RBPkLNa4fFY5G7cGTv7/8fthS34DV2ae5I+iU2GNLeIFeOp9ZOVUUOTUgj73WInGDdkVuCq7YC1EIl7Aijc8/HY49FLsLNa4e0l1N0bUlojuA5q8fta+6zE8PijdwsSx0fj98PPBZo6faF9LrBa4aHgUug6WMHQHES1g5w9N1DUE/qhz3o1xrHkxkX7RLR81ahqsftvNspdq8f9zythRNtYtT+SSkbawxRjRAv4sCtzuR9tMrHruv+QDWK2weGECdfWw6i03Tz6cwH05CVjDnKGIFlBVE7j0p6VYiIsN/Dnv0kX9yZ4Ty5DBPZOaiO6EE/oH/r24VDMc2diiTD2WfIhwAecMCpxInw/mL67CU+/r4YjaE9ECrrosGpPBxgEFhU1MmF7OR580oIdvmN8pES0gLcXC9CkxhsedxRrZD1ZyydRS1rzjodbT8zUiogUAPLU4AVtUx/tnFDk1Hn22huGTSlnyfA3FpT1XJSJewOgMGyuedBg2Rafjqffx2tseRk0pZemLtT1SIyJeAMCC2+JZ/XxipzWhlSavn1Xr3YybVsbXu5rCGlufEABw563xfPtxKmMu7vpTbUmZTma2i41b68MWV58RADDmYhu7tqex4dUkRo7o2oKLpsM9S6vCVhP6lAAAsxnmZsWx74t08jYkM21yv077B12HBY9U4W3u/s3C+pyAVkwmmD4lhu3vprD3i3TmZsV1KKKkTGfTtu5vivqsgNPJGBHFhleTKNicyuCBxnPOn3/j7fZr9yoBDY2hNwF+f8sUREdcMSGareuTDWvC/l+aQ76+EWeNgGMlGnMWVrB3v/FNlpQZPyB1NMQsLtXJvMPFynXuTuMYnWHjwvMDd9AVVd3/gKZcwCnNz8tr3Yy9toz8HY3kPFTJCYNE/3TAuAkYkNT+Vvx+2LCpjnHTyigobOKFVW4OHOq8FOt64JoW9B6fXUCpgO92e7ns+nKeyK39t3n5y6lx9c0nyS9o/HdlCuDPIxpPrzQuwekpbW/l+AmNWbe7uO+xatx1LW2Pt9lPZk4FR44ZL9AXOTUOHw18fFB6909TK1uQKXJqTL/1ZMB22VmsMWdBBUmJZkYMi6K6xsfho6c6nLWcND66zd9z76nkp4PtS3u5S2fyjSfJXWZn9sy4Nite3+328sCy6jbiT2fsqO5fmlS6c+78xVV8kHfmQzuH3Yxz76A2/cCOb5vIynEZJhPAnmAmY0QUJlPLG3Md9TEAH72ZzKxrjWdXoZftnPvKMw6GDTnzSnh/Tny7Tnja5H7cm22wJPYPtW4fP+zzsmuvt9Pkjx9tY8bUjpMfCkoF2PubyX8vhYFpob/vccF5VhbND5zo5Y87yLouNuT/3YrDbmZdbhLmMGRL+Sho2BArhXlpQU2StZKWYmHrW8kkxAe+DasVNq4ewKL5/bs0HW10jU83ppDRxbmjYFEuAGDwQAuFeak8t8SOPaHzkEwmmHlNDHs+SzMcs7ditULuMgdffpjKhDFdl9wv2sRd8+LZX5DOpWHofFs567avr2vwsyW/nq8Kvew/1Ey5S0fXISnRzNBzWl4fn3NDbMgl8uCvzWz7vIl9B7z8/pdGTa2PhkYfDruZ1GQLYzJsTBpvY/aMWBz24MtnsJ3wWSegt9OrRkGCCFCOCFCMCFCMCFCMCFCMCBAEQRAEQRAEQRAEQRCEHuJvZNvz5NXe5wIAAAAASUVORK5CYII=;" vertex="1" parent="1">
          <mxGeometry x="690" y="152" width="96" height="96" as="geometry" />
        </mxCell>
      </root>
    </mxGraphModel>
  </diagram>
</mxfile>
